<?xml version="1.0" encoding="utf-8"?>
<!-- Generator: Adobe Illustrator 23.0.3, SVG Export Plug-In . SVG Version: 6.00 Build 0)  -->
<svg version="1.1" id="Layer_1" xmlns="http://www.w3.org/2000/svg" xmlns:xlink="http://www.w3.org/1999/xlink" x="0px" y="0px"
	 viewBox="0 0 640 632" style="enable-background:new 0 0 640 632;" xml:space="preserve">
<style type="text/css">
	.st0{fill:#00008B;}
	.st1{fill:#141416;}
	.st2{fill:#FFFFFF;}
	.st3{fill:#142954;}
	.st4{fill:#606060;}
</style>
<g>
	<g>
		<path class="st3" d="M184.35,365.39c0,1.82,0,3.43,0,5.18c-2.33,0-4.44,0-6.78,0c0-1.74,0-3.35,0-4.96
			c-27-4.17-42.43-19.69-46.7-46.71c-1.49,0-3.09,0-4.87,0c0-2.36,0-4.47,0-6.82c1.55,0,3.15,0,5.03,0
			c1.36-12.41,5.95-23.17,14.74-31.97c8.75-8.76,19.45-13.31,31.8-14.66c0-1.78,0-3.39,0-5.13c2.32,0,4.42,0,6.75,0
			c0,1.73,0,3.33,0,4.9c26.98,4.23,42.49,19.67,46.7,46.71c1.51,0,3.11,0,4.89,0c0,2.3,0,4.41,0,6.57
			c-0.22,0.09-0.44,0.25-0.67,0.27c-4.34,0.26-4.34,0.26-5.02,4.42c-3.46,21.03-19.2,37.25-40.15,41.35
			C188.29,364.87,186.49,365.07,184.35,365.39z M223.68,311.86c-0.21-19.47-22.11-41.18-39.22-39.09c-0.07,1-0.14,2.02-0.23,3.16
			c-2.21,0-4.33,0-6.53,0c-0.11-1.18-0.22-2.26-0.32-3.33c-22.26,1.17-38.58,21.08-39.14,39.22c1.07,0.1,2.14,0.21,3.21,0.31
			c0,2.29,0,4.39,0,6.49c-1.24,0.16-2.3,0.3-3.34,0.44c1.8,23.05,21.51,38.5,39.23,39.13c0.12-1.05,0.24-2.12,0.36-3.2
			c2.27,0,4.39,0,6.48,0c0.15,1.22,0.28,2.28,0.41,3.32c23.7-1.76,38.81-22.65,38.93-39.32c-0.97-0.11-1.97-0.22-3.05-0.34
			c0-2.25,0-4.42,0-6.61C221.64,311.97,222.57,311.92,223.68,311.86z"/>
		<path class="st3" d="M180.99,345.69c-15.12,0.74-30.44-12.43-30.39-30.24c0.05-16.85,13.5-30.43,30.3-30.44
			c16.97-0.01,30.14,13.48,30.39,30.6C211.53,331.54,197.17,346.43,180.99,345.69z M157.51,315.07
			c-0.82,12.29,9.83,23.89,23.42,23.93c12.9,0.04,23.27-10.46,23.59-23.38c0.29-11.75-9.96-24.35-24.73-23.85
			C167.98,292.18,157.53,302.7,157.51,315.07z"/>
		<circle class="st3" cx="180.95" cy="315.37" r="5.89"/>
	</g>
	<path class="st3" d="M259.41,343.11v27.46h-16.03v-66.5c0-4.71,0-9.37-0.11-14.04h15.62c0.22,1.54,0.52,5.12,0.52,7.25
		c2.5-4.27,7.69-8.6,16.93-8.6c13.08,0,23.19,10.94,23.19,29.01c0,20.55-11.3,31.93-25.4,31.93
		C265.91,349.61,261.63,346.51,259.41,343.11z M283.17,318.31c0-10.67-4.32-16.7-11.99-16.7c-9.16,0-12.4,5.88-12.4,17.61
		c0,11.11,3,17.58,11.72,17.58C279.02,336.8,283.17,330.17,283.17,318.31z"/>
	<path class="st3" d="M304.66,290.03h8.98v-15.77h16.12v15.77h11.41v12.12h-11.41v28.74c0,4.42,1.35,6.14,6.16,6.14
		c0.89,0,2.47-0.01,3.67-0.18v11.09c-3.2,1.08-7.58,1.11-10.84,1.11c-11.36,0-15.11-6.08-15.11-16.27v-30.64h-8.98V290.03z"/>
	<path class="st3" d="M363.59,290.03c6.01,20.09,11.26,38.03,12.18,43.41h0.11c1.26-5.87,4.67-18.92,11.62-43.41h16.05l-19.57,59.91
		c-5.57,16.75-10.21,21.75-24.2,21.75c-1.43,0-4.76-0.11-7.55-0.44V358.3c1.09,0.13,2.87,0.24,4.17,0.24
		c5.92,0,8.91-2.06,11.09-8.49l-21.19-60.02H363.59z"/>
	<path class="st3" d="M401.81,348.26V328.5h17.31v19.76H401.81z"/>
	<path class="st3" d="M433.72,270.7h54.14v13.75h-37.77v19.01h35.38v13.75h-35.38v31.07h-16.38V270.7z"/>
	<path class="st3" d="M497.87,266.14H514v14.38h-16.12V266.14z M497.87,290.03H514v58.23h-16.12V290.03z"/>
</g>
</svg>
