<svg width="55" height="70" viewBox="0 0 55 70" fill="none" xmlns="http://www.w3.org/2000/svg">
<path d="M9.88139 0H5.94068C5.3884 0 4.94068 0.447715 4.94068 1V4.00112C4.94068 4.5534 4.49297 5.00112 3.94069 5.00112H0.999999C0.447714 5.00112 0 5.44883 0 6.00112V49.2379C0 49.7902 0.447715 50.2379 1 50.2379H8.88138C9.43367 50.2379 9.88139 49.7902 9.88139 49.2379V5.94068C9.88139 5.3884 10.3291 4.94068 10.8814 4.94068H13.8221C14.3744 4.94068 14.8221 4.49297 14.8221 3.94068V0.999999C14.8221 0.447714 14.3744 0 13.8221 0H9.88139Z" fill="#0075FF"/>
<path d="M29.6436 0H25.7035C25.1512 0 24.7035 0.447715 24.7035 1V3.94068C24.7035 4.49297 24.2557 4.94068 23.7035 4.94068H20.7627C20.2104 4.94068 19.7627 5.3884 19.7627 5.94068V59.1186C19.7627 59.6709 20.2104 60.1186 20.7627 60.1186H24.7035H28.6436C29.1959 60.1186 29.6436 59.6709 29.6436 59.1186V5.94068C29.6436 5.3884 30.0913 4.94068 30.6436 4.94068H33.5842C34.1365 4.94068 34.5842 4.49297 34.5842 3.94068V0.999999C34.5842 0.447714 34.1365 0 33.5842 0H29.6436Z" fill="#0075FF"/>
<path d="M53.3465 4.94129C53.8988 4.94129 54.3465 4.49357 54.3465 3.94129V1C54.3465 0.447716 53.8988 0 53.3465 0H49.4052H45.4652C44.9129 0 44.4652 0.447715 44.4652 1V3.94129C44.4652 4.49357 44.0175 4.94129 43.4652 4.94129H40.5244C39.9721 4.94129 39.5244 5.389 39.5244 5.94129V50.2379V69C39.5244 69.5523 39.9721 70 40.5244 70H48.4058C48.9581 70 49.4058 69.5523 49.4058 69V50.2382C49.4058 50.238 49.4056 50.2379 49.4055 50.2379C49.4053 50.2379 49.4052 50.2377 49.4052 50.2376V5.94129C49.4052 5.38901 49.8529 4.94129 50.4052 4.94129H53.3465Z" fill="#0075FF"/>
</svg>
